<svg width="40" height="40" viewBox="0 0 40 40" fill="none" xmlns="http://www.w3.org/2000/svg">
<path d="M10 34V18.761L1 12V30.7805C1 32.9268 2.09756 34 4.29268 34" fill="#D9D9D9"/>
<path d="M10 19.64L20 28L30 19.64V9L20 17.36L10 9" fill="#D9D9D9"/>
<path d="M30 34V18.761L39 12V30.7805C39 32.9268 37.9024 34 35.7073 34" fill="#D9D9D9"/>
<path d="M1 12.6794L10 19V9.16803L6.70732 6.86053C3.7439 4.75367 1 6.86053 1 9.46901" fill="#D9D9D9"/>
<path d="M39 12.6794L30 19V9.16803L33.2927 6.86053C36.2561 4.75367 39 6.86053 39 9.46901" fill="#D9D9D9"/>
</svg>
