<svg width="40" height="40" viewBox="0 0 40 40" fill="none" xmlns="http://www.w3.org/2000/svg">
<g clip-path="url(#clip0_15_66)">
<path fill-rule="evenodd" clip-rule="evenodd" d="M9.10188 39.0797V13.3324H0.544922V39.0796H9.10188V39.0797ZM4.8243 9.81838C7.80734 9.81838 9.66555 7.83963 9.66555 5.36893C9.60914 2.8433 7.80734 0.92041 4.88023 0.92041C1.95266 0.920488 0.0390625 2.84338 0.0390625 5.369C0.0390625 7.83971 1.89625 9.81846 4.76797 9.81846L4.8243 9.81838ZM13.8378 39.0797C13.8378 39.0797 13.9501 15.7482 13.8378 13.3325H22.3961V17.0664H22.3393C23.4646 15.3094 25.492 12.7279 30.108 12.7279C35.7397 12.7279 39.9609 16.4078 39.9609 24.3164V39.0798H31.404V25.3057C31.404 21.8447 30.1659 19.483 27.0683 19.483C24.7047 19.483 23.2961 21.0752 22.6775 22.6142C22.4512 23.1621 22.3961 23.9315 22.3961 24.701V39.0797H13.8378Z" fill="#D9D9D9"/>
</g>
<defs>
<clipPath id="clip0_15_66">
<rect width="40" height="40" fill="white"/>
</clipPath>
</defs>
</svg>
