<svg width="40" height="39" viewBox="0 0 40 39" fill="none" xmlns="http://www.w3.org/2000/svg">
<path d="M29.5979 21.9271C29.52 21.8914 26.6039 20.5215 26.0857 20.3435C25.8741 20.2711 25.6475 20.2003 25.4065 20.2003C25.0127 20.2003 24.6819 20.3875 24.4243 20.7552C24.133 21.1683 23.2512 22.1517 22.9787 22.4454C22.9431 22.4842 22.8945 22.5306 22.8654 22.5306C22.8393 22.5306 22.388 22.3533 22.2514 22.2966C19.1232 21.0003 16.7488 17.883 16.4232 17.3573C16.3767 17.2817 16.3748 17.2474 16.3744 17.2474C16.3858 17.2074 16.491 17.1068 16.5453 17.0549C16.7041 16.9049 16.8762 16.7073 17.0427 16.5162C17.1216 16.4256 17.2005 16.3349 17.278 16.2494C17.5196 15.9813 17.6271 15.7732 17.7518 15.5321L17.8171 15.4068C18.1216 14.8298 17.8616 14.3429 17.7775 14.1857C17.7086 14.0541 16.4773 11.2191 16.3464 10.9213C16.0316 10.2026 15.6156 9.86792 15.0375 9.86792C14.9839 9.86792 15.0375 9.86792 14.8126 9.87696C14.5387 9.88799 13.0471 10.0753 12.3877 10.4719C11.6883 10.8925 10.5052 12.2333 10.5052 14.5913C10.5052 16.7135 11.9169 18.7173 12.523 19.4794C12.538 19.4986 12.5657 19.5376 12.6058 19.5936C14.927 22.8275 17.8206 25.2242 20.754 26.3421C23.578 27.4182 24.9153 27.5426 25.6756 27.5426H25.6757C25.9952 27.5426 26.2509 27.5187 26.4765 27.4975L26.6196 27.4845C27.5952 27.402 29.7391 26.3422 30.2267 25.0494C30.6109 24.0311 30.7122 22.9185 30.4566 22.5147C30.2816 22.2401 29.9799 22.102 29.5979 21.9271Z" fill="#D9D9D9"/>
<path d="M20.355 0C9.52179 0 0.708281 8.34487 0.708281 18.6021C0.708281 21.9196 1.63893 25.167 3.40192 28.0092L0.0275023 37.5052C-0.0353548 37.6822 0.0113984 37.878 0.148671 38.0113C0.247762 38.1078 0.382178 38.1599 0.51945 38.1599C0.572048 38.1599 0.625035 38.1523 0.676723 38.1366L11.0559 34.9901C13.8962 36.4378 17.1063 37.202 20.3552 37.202C31.1874 37.2022 40 28.8581 40 18.6021C40 8.34487 31.1874 0 20.355 0ZM20.355 33.3272C17.298 33.3272 14.3371 32.4851 11.7919 30.8918C11.7063 30.8381 11.607 30.8106 11.507 30.8106C11.4541 30.8106 11.4011 30.8183 11.3496 30.8339L6.15023 32.4106L7.82867 27.6866C7.88296 27.5337 7.85581 27.3651 7.75581 27.2347C5.81763 24.7083 4.79309 21.7232 4.79309 18.6021C4.79309 10.4816 11.7741 3.87496 20.3549 3.87496C28.9346 3.87496 35.9149 10.4816 35.9149 18.6021C35.915 26.7216 28.9349 33.3272 20.355 33.3272Z" fill="#D9D9D9"/>
</svg>
